<svg xmlns="http://www.w3.org/2000/svg" version="1.1">

    <defs>
    
        <symbol id="box-arrow-in-right" viewBox="0 0 16 16"><path fill-rule="evenodd" d="M6 3.5a.5.5 0 0 1 .5-.5h8a.5.5 0 0 1 .5.5v9a.5.5 0 0 1-.5.5h-8a.5.5 0 0 1-.5-.5v-2a.5.5 0 0 0-1 0v2A1.5 1.5 0 0 0 6.5 14h8a1.5 1.5 0 0 0 1.5-1.5v-9A1.5 1.5 0 0 0 14.5 2h-8A1.5 1.5 0 0 0 5 3.5v2a.5.5 0 0 0 1 0v-2z"/><path fill-rule="evenodd" d="M11.854 8.354a.5.5 0 0 0 0-.708l-3-3a.5.5 0 1 0-.708.708L10.293 7.5H1.5a.5.5 0 0 0 0 1h8.793l-2.147 2.146a.5.5 0 0 0 .708.708l3-3z"/></symbol>
        <symbol id="person-plus-fill" viewBox="0 0 16 16"><path d="M1 14s-1 0-1-1 1-4 6-4 6 3 6 4-1 1-1 1H1zm5-6a3 3 0 1 0 0-6 3 3 0 0 0 0 6z"/><path fill-rule="evenodd" d="M13.5 5a.5.5 0 0 1 .5.5V7h1.5a.5.5 0 0 1 0 1H14v1.5a.5.5 0 0 1-1 0V8h-1.5a.5.5 0 0 1 0-1H13V5.5a.5.5 0 0 1 .5-.5z"/></symbol>
        <symbol id="person-check-fill" viewBox="0 0 16 16"><path fill-rule="evenodd" d="M15.854 5.146a.5.5 0 0 1 0 .708l-3 3a.5.5 0 0 1-.708 0l-1.5-1.5a.5.5 0 0 1 .708-.708L12.5 7.793l2.646-2.647a.5.5 0 0 1 .708 0z"/><path d="M1 14s-1 0-1-1 1-4 6-4 6 3 6 4-1 1-1 1H1zm5-6a3 3 0 1 0 0-6 3 3 0 0 0 0 6z"/></symbol>
        <symbol id="person-fill" viewBox="0 0 16 16"><path d="M3 14s-1 0-1-1 1-4 6-4 6 3 6 4-1 1-1 1H3zm5-6a3 3 0 1 0 0-6 3 3 0 0 0 0 6z"/></symbol>

    </defs>

</svg>