<?xml version="1.0" encoding="UTF-8" standalone="no"?>
<!-- Created with Inkscape (http://www.inkscape.org/) -->

<svg
   width="115.382mm"
   height="20.07mm"
   viewBox="0 0 115.382 20.07"
   version="1.1"
   id="svg1420"
   xmlns="http://www.w3.org/2000/svg"
   xmlns:svg="http://www.w3.org/2000/svg">
  <defs
     id="defs1417" />
  <g
     id="layer1">
    <g
       aria-label="DigitAção"
       id="text84811"
       style="font-size:16.9511px;line-height:1.25;font-family:Rubik;-inkscape-font-specification:Rubik;letter-spacing:0px;fill:#28537d;stroke-width:0.42378">
      <g
         aria-label="DigitAção"
         id="text83779"
         style="font-size:21.4191px;stroke-width:0.535481;fill:#fff">
        <path
           d="m 22.384726,15.357497 q -0.23561,0 -0.364124,-0.128514 -0.128515,-0.149934 -0.128515,-0.364125 V 0.87818575 q 0,-0.2356101 0.128515,-0.3641247 0.128514,-0.1499337 0.364124,-0.1499337 h 4.862136 q 2.206167,0 3.555571,0.66399205 1.349403,0.6639921 1.970557,1.9705572 0.621154,1.285146 0.642573,3.1700268 0.02142,0.9638595 0.02142,1.6921089 0,0.7282494 -0.02142,1.6706898 -0.04284,1.9705569 -0.663992,3.2771219 -0.599735,1.285146 -1.927719,1.927719 -1.306565,0.621154 -3.469894,0.621154 z m 1.606433,-1.820623 h 3.255703 q 1.477918,0 2.356101,-0.406963 0.878183,-0.406963 1.263727,-1.306565 0.406963,-0.899602 0.428382,-2.3775203 0.04284,-0.642573 0.04284,-1.1137932 0,-0.4926393 0,-0.9638595 0,-0.4926393 -0.04284,-1.1137932 -0.04284,-2.0776527 -0.985279,-3.0629313 -0.94244,-1.0066977 -3.170026,-1.0066977 h -3.148608 z"
           id="path2599" />
        <path
           d="m 36.86402,15.357497 q -0.214191,0 -0.364125,-0.128514 -0.128514,-0.149934 -0.128514,-0.364125 V 4.7122046 q 0,-0.214191 0.128514,-0.3427056 0.149934,-0.1499337 0.364125,-0.1499337 h 1.028117 q 0.214191,0 0.342705,0.1499337 0.128515,0.1285146 0.128515,0.3427056 V 14.864858 q 0,0.214191 -0.128515,0.364125 -0.128514,0.128514 -0.342705,0.128514 z M 36.692667,2.1419126 q -0.214191,0 -0.364124,-0.1285146 Q 36.200028,1.8634643 36.200028,1.6492733 V 0.49264195 q 0,-0.214191 0.128515,-0.3427056 Q 36.478476,2.6531219e-6 36.692667,2.6531219e-6 h 1.349404 q 0.214191,0 0.342705,0.1499336968781 0.149934,0.1285146 0.149934,0.3427056 V 1.6492733 q 0,0.214191 -0.149934,0.3641247 -0.128514,0.1285146 -0.342705,0.1285146 z"
           id="path2601" />
        <path
           d="m 46.117043,20.069699 q -1.456499,0 -2.39894,-0.385544 -0.921021,-0.385543 -1.456498,-0.94244 -0.514059,-0.535478 -0.749669,-1.092374 -0.214191,-0.535478 -0.23561,-0.856764 -0.02142,-0.214191 0.128515,-0.364125 0.171352,-0.149933 0.364124,-0.149933 h 1.028117 q 0.192772,0 0.321287,0.08568 0.128514,0.08568 0.214191,0.364125 0.128514,0.321286 0.385543,0.70683 0.25703,0.406963 0.792507,0.685411 0.535478,0.299867 1.499337,0.299867 1.006698,0 1.692109,-0.278448 0.685411,-0.257029 1.028117,-0.94244 0.364124,-0.663992 0.364124,-1.842043 v -1.456499 q -0.514058,0.663993 -1.349403,1.113794 -0.835345,0.428382 -2.099072,0.428382 -1.199469,0 -2.056233,-0.406963 -0.856764,-0.428382 -1.413661,-1.135213 -0.535477,-0.728249 -0.813926,-1.64927 -0.257029,-0.921022 -0.299867,-1.927719 -0.02142,-0.599735 0,-1.1780507 0.04284,-1.0066977 0.299867,-1.927719 0.278449,-0.9210213 0.813926,-1.6492707 0.556897,-0.7282494 1.413661,-1.1352123 0.856764,-0.428382 2.056233,-0.428382 1.285146,0 2.120491,0.4926393 0.856764,0.4712202 1.392242,1.1566314 V 4.7336237 q 0,-0.214191 0.128514,-0.3641247 0.149934,-0.1499337 0.364125,-0.1499337 h 0.985279 q 0.214191,0 0.364124,0.1499337 0.149934,0.1499337 0.149934,0.3641247 V 15.121887 q 0,1.43508 -0.492639,2.548873 -0.47122,1.113793 -1.585014,1.756366 -1.092374,0.642573 -2.955835,0.642573 z m -0.04284,-6.340053 q 1.070955,0 1.713528,-0.49264 0.663992,-0.492639 0.96386,-1.242307 0.321286,-0.749669 0.342705,-1.520757 0.02142,-0.299867 0.02142,-0.7282489 0,-0.4498011 -0.02142,-0.7496685 Q 49.072878,8.224937 48.751592,7.4752685 48.451724,6.7256 47.787732,6.2329607 47.145159,5.7403214 46.074204,5.7403214 q -1.070955,0 -1.713528,0.4926393 -0.642573,0.4712202 -0.921021,1.2637269 -0.278448,0.7710876 -0.321286,1.6706898 -0.02142,0.5568966 0,1.1352126 0.04284,0.899602 0.321286,1.692109 0.278448,0.771087 0.921021,1.263726 0.642573,0.471221 1.713528,0.471221 z"
           id="path2603" />
        <path
           d="m 54.83458,15.357497 q -0.214191,0 -0.364125,-0.128514 -0.128514,-0.149934 -0.128514,-0.364125 V 4.7122046 q 0,-0.214191 0.128514,-0.3427056 0.149934,-0.1499337 0.364125,-0.1499337 h 1.028117 q 0.214191,0 0.342706,0.1499337 0.128514,0.1285146 0.128514,0.3427056 V 14.864858 q 0,0.214191 -0.128514,0.364125 -0.128515,0.128514 -0.342706,0.128514 z M 54.663227,2.1419126 q -0.214191,0 -0.364124,-0.1285146 Q 54.170588,1.8634643 54.170588,1.6492733 V 0.49264195 q 0,-0.214191 0.128515,-0.3427056 Q 54.449036,2.6531219e-6 54.663227,2.6531219e-6 h 1.349404 q 0.214191,0 0.342705,0.1499336968781 0.149934,0.1285146 0.149934,0.3427056 V 1.6492733 q 0,0.214191 -0.149934,0.3641247 -0.128514,0.1285146 -0.342705,0.1285146 z"
           id="path2605" />
        <path
           d="m 63.87341,15.357497 q -1.19947,0 -1.949138,-0.449801 -0.749669,-0.47122 -1.092374,-1.306565 -0.342706,-0.856764 -0.342706,-2.013395 V 5.9330933 h -1.67069 q -0.214191,0 -0.364125,-0.1285146 Q 58.325863,5.654645 58.325863,5.440454 V 4.7122046 q 0,-0.214191 0.128514,-0.3427056 0.149934,-0.1499337 0.364125,-0.1499337 h 1.67069 V 0.64257565 q 0,-0.214191 0.128515,-0.3427056 0.149933,-0.1499337 0.364124,-0.1499337 h 1.006698 q 0.214191,0 0.342706,0.1499337 0.149933,0.1285146 0.149933,0.3427056 V 4.2195653 h 2.655969 q 0.214191,0 0.342705,0.1499337 0.149934,0.1285146 0.149934,0.3427056 V 5.440454 q 0,0.214191 -0.149934,0.3641247 -0.128514,0.1285146 -0.342705,0.1285146 h -2.655969 v 5.5047087 q 0,1.006698 0.342706,1.585013 0.342705,0.578316 1.220889,0.578316 h 1.306565 q 0.214191,0 0.342705,0.149934 0.149934,0.128514 0.149934,0.342705 v 0.771088 q 0,0.214191 -0.149934,0.364125 -0.128514,0.128514 -0.342705,0.128514 z"
           id="path2607" />
        <path
           d="m 67.171927,15.357497 q -0.171353,0 -0.299868,-0.128514 -0.128514,-0.128515 -0.128514,-0.299868 0,-0.107095 0.02142,-0.23561 L 72.076901,0.83534755 q 0.08568,-0.214191 0.23561,-0.3427056 0.149933,-0.1285146 0.449801,-0.1285146 h 1.456498 q 0.278449,0 0.428382,0.1285146 0.171353,0.1285146 0.25703,0.3427056 L 80.194739,14.693505 q 0.04284,0.128515 0.04284,0.23561 0,0.171353 -0.128515,0.299868 -0.128515,0.128514 -0.299867,0.128514 h -1.092375 q -0.257029,0 -0.385543,-0.128514 -0.107096,-0.128515 -0.149934,-0.23561 L 77.003293,11.95186 h -7.025464 l -1.178051,3.041513 q -0.02142,0.107095 -0.149933,0.23561 -0.128515,0.128514 -0.385544,0.128514 z m 3.427056,-5.247679 H 76.38214 L 73.490561,2.5060373 Z"
           id="path2609" />
        <path
           d="m 86.57358,20.069699 q -0.599735,-0.02142 -1.070955,-0.214191 -0.449801,-0.192772 -0.663992,-0.449801 -0.192772,-0.257029 0,-0.428382 l 0.321286,-0.299867 q 0.192772,-0.171353 0.342706,-0.08568 0.149934,0.107096 0.385544,0.257029 0.23561,0.149934 0.685411,0.149934 0.342706,0 0.599735,-0.214191 0.257029,-0.214191 0.257029,-0.578316 0,-0.342705 -0.257029,-0.556896 -0.257029,-0.192772 -0.599735,-0.192772 -0.321286,0 -0.556897,0.08568 -0.214191,0.08568 -0.385543,0.107096 -0.149934,0.04284 -0.321287,-0.128515 l -0.364125,-0.385544 q -0.107095,-0.128514 -0.06426,-0.299867 0.06426,-0.171353 0.149934,-0.342705 l 0.428382,-1.028117 q -1.756366,-0.299868 -2.763064,-1.542175 -0.985279,-1.263727 -1.049536,-3.277123 -0.02142,-0.321286 -0.02142,-0.8567637 0,-0.5354775 0.02142,-0.856764 0.04284,-1.5421752 0.642573,-2.6345493 0.599735,-1.1137932 1.692109,-1.6921089 1.113793,-0.5997348 2.634549,-0.5997348 1.242308,0 2.120491,0.3427056 0.899602,0.3427056 1.477918,0.8781831 0.578316,0.5354775 0.856764,1.1566314 0.299867,0.6211539 0.321286,1.1780505 0.02142,0.214191 -0.128514,0.3427056 -0.149934,0.1285146 -0.364125,0.1285146 h -1.028117 q -0.214191,0 -0.321286,-0.085676 Q 89.443739,7.8393932 89.336644,7.6037831 88.9511,6.5542472 88.287108,6.1258652 q -0.663992,-0.428382 -1.649271,-0.428382 -1.285146,0 -2.099071,0.7925067 -0.792507,0.7925067 -0.856764,2.5488729 -0.02142,0.7710876 0,1.4993372 0.06426,1.777785 0.856764,2.570292 0.813925,0.771087 2.099071,0.771087 0.985279,0 1.649271,-0.428382 0.663992,-0.428382 1.049536,-1.477918 0.107095,-0.23561 0.214191,-0.321286 0.107095,-0.107096 0.321286,-0.107096 h 1.028117 q 0.214191,0 0.364125,0.128515 0.149934,0.128515 0.128514,0.342706 -0.02142,0.535477 -0.321286,1.156631 -0.278448,0.621154 -0.835345,1.156631 -0.556897,0.535478 -1.456499,0.899603 -0.878183,0.342705 -2.14191,0.342705 l -0.47122,0.985279 q 0.128515,-0.08568 0.342706,-0.128515 0.23561,-0.04284 0.449801,-0.04284 0.728249,0 1.17805,0.492639 0.47122,0.514059 0.47122,1.306565 0,0.771088 -0.535477,1.327985 -0.514058,0.578315 -1.499337,0.556896 z"
           id="path2611" />
        <path
           d="m 97.04748,15.571688 q -1.070955,0 -1.949138,-0.428382 -0.878183,-0.428382 -1.413661,-1.156631 -0.535477,-0.72825 -0.535477,-1.649271 0,-1.477918 1.199469,-2.3561008 1.19947,-0.8781831 3.127189,-1.1566314 L 100.66731,8.3748707 V 7.7537168 q 0,-1.0281168 -0.59974,-1.6064325 -0.578313,-0.5783157 -1.906297,-0.5783157 -0.963859,0 -1.563594,0.3855438 -0.578316,0.3855438 -0.813926,0.9852786 -0.128515,0.3212865 -0.449801,0.3212865 h -0.96386 q -0.23561,0 -0.364124,-0.1285146 -0.107096,-0.1499337 -0.107096,-0.3427056 0,-0.3212865 0.23561,-0.7925067 0.25703,-0.4712202 0.771088,-0.9210213 0.514058,-0.4498011 1.306565,-0.7496685 0.813926,-0.3212865 1.970557,-0.3212865 1.285146,0 2.163328,0.3427056 0.87818,0.3212865 1.37082,0.8781831 0.51406,0.5568966 0.72825,1.2637269 0.23561,0.7068303 0.23561,1.4350797 v 6.9397884 q 0,0.214191 -0.14993,0.364125 -0.12852,0.128514 -0.34271,0.128514 h -0.98527 q -0.23561,0 -0.36413,-0.128514 -0.12851,-0.149934 -0.12851,-0.364125 v -0.921021 q -0.27845,0.385543 -0.749672,0.771087 -0.471221,0.364125 -1.178051,0.621154 -0.70683,0.23561 -1.734947,0.23561 z m 0.449801,-1.606432 q 0.878183,0 1.606433,-0.364125 0.728249,-0.385544 1.135216,-1.17805 0.42838,-0.792507 0.42838,-1.991977 V 9.8313695 l -2.484618,0.3641245 q -1.520756,0.214191 -2.291843,0.72825 -0.771088,0.492639 -0.771088,1.263726 0,0.599735 0.342706,1.006698 0.364124,0.385544 0.899602,0.578316 0.556896,0.192772 1.135212,0.192772 z M 99.296485,2.7202283 q -0.535477,0 -0.856764,-0.1713528 -0.321286,-0.1927719 -0.599734,-0.3641247 -0.25703,-0.1927719 -0.599735,-0.1927719 -0.23561,0 -0.364125,0.1499337 -0.107095,0.1499337 -0.214191,0.3212865 -0.08568,0.1499337 -0.321286,0.1499337 h -0.685412 q -0.149933,0 -0.257029,-0.1070955 -0.107095,-0.1070955 -0.107095,-0.2356101 0,-0.3212865 0.107095,-0.642573 0.128515,-0.3427056 0.364125,-0.6211539 0.23561,-0.29986735 0.556897,-0.47122015 0.342705,-0.1713528 0.749668,-0.1713528 0.556897,0 0.878183,0.1927719 0.321287,0.1713528 0.599735,0.36412469 0.278448,0.17135276 0.578316,0.17135276 0.278448,0 0.385543,-0.14993366 0.107096,-0.17135279 0.192772,-0.32128649 0.107096,-0.1713528 0.342702,-0.1713528 h 0.68542 q 0.17135,0 0.25702,0.1070955 0.1071,0.1070955 0.1071,0.2570292 0,0.29986735 -0.12851,0.64257295 -0.1071,0.3427056 -0.34271,0.642573 -0.23561,0.2784483 -0.57832,0.4498011 -0.321283,0.1713528 -0.749665,0.1713528 z"
           id="path2613" />
        <path
           d="m 110.32728,15.571688 q -1.62785,0 -2.72022,-0.621154 -1.09238,-0.621154 -1.67069,-1.713528 -0.57832,-1.113793 -0.64258,-2.527453 -0.0214,-0.364125 -0.0214,-0.9210217 0,-0.5783157 0.0214,-0.9210213 0.0643,-1.4350797 0.64258,-2.5274538 0.59973,-1.0923741 1.69211,-1.713528 1.09237,-0.6211539 2.6988,-0.6211539 1.60643,0 2.69881,0.6211539 1.09237,0.6211539 1.67069,1.713528 0.59973,1.0923741 0.66399,2.5274538 0.0214,0.3427056 0.0214,0.9210213 0,0.5568967 -0.0214,0.9210217 -0.0643,1.41366 -0.64257,2.527453 -0.57832,1.092374 -1.67069,1.713528 -1.09238,0.621154 -2.72023,0.621154 z m 0,-1.64927 q 1.32799,0 2.12049,-0.835345 0.79251,-0.856764 0.85677,-2.484616 0.0214,-0.321286 0.0214,-0.8139257 0,-0.4926393 -0.0214,-0.8139258 -0.0643,-1.6278516 -0.85677,-2.4631965 -0.7925,-0.856764 -2.12049,-0.856764 -1.32798,0 -2.14191,0.856764 -0.7925,0.8353449 -0.83534,2.4631965 -0.0214,0.3212865 -0.0214,0.8139258 0,0.4926397 0.0214,0.8139257 0.0428,1.627852 0.83534,2.484616 0.81393,0.835345 2.14191,0.835345 z"
           id="path2615" />
      </g>
      <rect
         style="fill:#f04e23;fill-opacity:1;stroke:none;stroke-width:0.594581"
         id="rect83781"
         width="20.070402"
         height="20.070402"
         x="4.2871093e-07"
         y="4.4863282e-05"
         ry="1.3612994" />
      <path
         id="path83783"
         style="clip-rule:evenodd;fill:#ffffff;fill-rule:nonzero;stroke-width:0.00299973;image-rendering:optimizeQuality;shape-rendering:geometricPrecision;text-rendering:geometricPrecision"
         class="fil1"
         d="m 10.023954,4.89676 c -0.57894,0 -1.15476,0.38717 -1.15476,1.1551 0.002,1.28988 0.006,5.16556 0.009,6.33546 0,0.19498 -0.1201,0.37479 -0.30008,0.44977 -2.28879,0.95693 0.53694,5.24654 1.0409,5.98147 0.051,0.069 0.0811,0.15314 0.0871,0.24013 l 0.074,1.01176 h 6.64022 l 0.13698,-1.05094 c 0.009,-0.075 0.036,-0.14699 0.075,-0.20999 1.47888,-2.2828 1.59298,-4.2836 1.344,-5.77147 h -3.3e-4 c -0.27298,-1.60787 -1.43079,-1.82668 -1.92875,-1.84469 -0.14099,-0.006 -0.26996,-0.0779 -0.34495,-0.19792 -0.37798,-0.59395 -0.88793,-0.7502 -1.3229,-0.7502 -0.19798,0 -0.3808,0.0331 -0.5248,0.069 -0.042,0.012 -0.0873,0.0181 -0.12927,0.0181 -0.15299,0 -0.29986,-0.0689 -0.39284,-0.19793 -0.37198,-0.51296 -0.85503,-0.65408 -1.27199,-0.65408 -0.11098,0 -0.21581,0.0121 -0.31481,0.0271 -0.024,0.003 -0.051,0.006 -0.075,0.006 -0.26698,0 -0.49198,-0.216 -0.49198,-0.49198 l -0.002,-2.97265 c 0,-0.76793 -0.57613,-1.15208 -1.15208,-1.15208 z" />
    </g>
  </g>
</svg>
