<?xml version="1.0" encoding="UTF-8" standalone="no"?>
<!-- Created with Inkscape (http://www.inkscape.org/) -->

<svg
   width="73.987999mm"
   height="61.671001mm"
   viewBox="0 0 73.987999 61.671001"
   version="1.1"
   id="svg1420"
   xmlns="http://www.w3.org/2000/svg"
   xmlns:svg="http://www.w3.org/2000/svg">
  <defs
     id="defs1417" />
  <g
     id="layer1">
    <g
       aria-label="DigitAção"
       id="text84811"
       style="font-size:16.9511px;line-height:1.25;font-family:Rubik;-inkscape-font-specification:Rubik;letter-spacing:0px;fill:#28537d;stroke-width:0.42378">
      <path
         d="m 0.38987483,57.941536 q -0.1864621,0 -0.28816869,-0.101707 Q -4.6062469e-7,57.721172 -4.6062469e-7,57.551661 V 46.482593 q 0,-0.186462 0.10170660062469,-0.288169 0.10170659,-0.118658 0.28816869,-0.118658 H 4.2377744 q 1.7459632,0 2.8138825,0.525484 1.0679192,0.525485 1.5595011,1.559502 0.4915819,1.017066 0.508533,2.508762 0.016951,0.7628 0.016951,1.339137 0,0.576338 -0.016951,1.322186 -0.033902,1.559501 -0.5254841,2.593518 -0.4746308,1.017066 -1.5255989,1.525599 -1.0340171,0.491582 -2.7460781,0.491582 z M 1.6612073,56.500693 h 2.5765671 q 1.1696258,0 1.8646209,-0.322071 0.6949951,-0.322071 1.0001149,-1.034017 0.3220709,-0.711947 0.339022,-1.881572 0.033902,-0.508533 0.033902,-0.881458 0,-0.389875 0,-0.762799 0,-0.389875 -0.033902,-0.881457 Q 7.40763,49.093062 6.6617816,48.313311 5.9159332,47.51661 4.1530189,47.51661 H 1.6612073 Z"
         id="path2419" />
      <path
         d="m 11.848804,57.941536 q -0.169511,0 -0.288169,-0.101707 -0.101706,-0.118657 -0.101706,-0.288168 V 49.51684 q 0,-0.169511 0.101706,-0.271218 0.118658,-0.118658 0.288169,-0.118658 h 0.813653 q 0.169511,0 0.271218,0.118658 0.101706,0.101707 0.101706,0.271218 v 8.034821 q 0,0.169511 -0.101706,0.288168 -0.101707,0.101707 -0.271218,0.101707 z M 11.713195,47.482708 q -0.169511,0 -0.288168,-0.101707 -0.101707,-0.118658 -0.101707,-0.288169 v -0.915359 q 0,-0.169511 0.101707,-0.271218 0.118657,-0.118657 0.288168,-0.118657 h 1.06792 q 0.169511,0 0.271217,0.118657 0.118658,0.101707 0.118658,0.271218 v 0.915359 q 0,0.169511 -0.118658,0.288169 -0.101706,0.101707 -0.271217,0.101707 z"
         id="path2421" />
      <path
         d="m 19.171656,61.670778 q -1.152674,0 -1.898523,-0.30512 -0.728897,-0.30512 -1.152675,-0.745848 -0.406826,-0.423778 -0.593288,-0.864506 -0.169511,-0.423778 -0.186462,-0.678044 -0.01695,-0.169511 0.101706,-0.288169 0.135609,-0.118658 0.288169,-0.118658 h 0.813653 q 0.15256,0 0.254266,0.0678 0.101707,0.0678 0.169511,0.288168 0.101707,0.254267 0.30512,0.559387 0.203413,0.32207 0.627191,0.542435 0.423777,0.237315 1.186577,0.237315 0.796702,0 1.339137,-0.220364 0.542435,-0.203413 0.813652,-0.745849 0.288169,-0.525484 0.288169,-1.457794 v -1.152675 q -0.406826,0.525484 -1.067919,0.881457 -0.661093,0.339022 -1.661208,0.339022 -0.949261,0 -1.627305,-0.322071 -0.678044,-0.339022 -1.118773,-0.898408 -0.423777,-0.576337 -0.644142,-1.305234 -0.203413,-0.728898 -0.237315,-1.525599 -0.01695,-0.474631 0,-0.932311 0.0339,-0.796702 0.237315,-1.525599 0.220365,-0.728897 0.644142,-1.305234 0.440729,-0.576338 1.118773,-0.898409 0.678044,-0.339022 1.627305,-0.339022 1.017066,0 1.678159,0.389876 0.678044,0.372924 1.101821,0.915359 v -0.728897 q 0,-0.169511 0.101707,-0.288169 0.118658,-0.118658 0.288169,-0.118658 h 0.77975 q 0.169511,0 0.288169,0.118658 0.118658,0.118658 0.118658,0.288169 v 8.221283 q 0,1.135724 -0.389876,2.017181 -0.372924,0.881457 -1.254381,1.38999 -0.864506,0.508533 -2.339252,0.508533 z m -0.0339,-5.017526 q 0.847555,0 1.356088,-0.389875 0.525484,-0.389875 0.7628,-0.983164 0.254266,-0.593288 0.271217,-1.203528 0.01695,-0.237315 0.01695,-0.576337 0,-0.355973 -0.01695,-0.593289 -0.01695,-0.610239 -0.271217,-1.203528 -0.237316,-0.593288 -0.7628,-0.983163 -0.508533,-0.389876 -1.356088,-0.389876 -0.847555,0 -1.356088,0.389876 -0.508533,0.372924 -0.728897,1.000114 -0.220364,0.61024 -0.254267,1.322186 -0.01695,0.440729 0,0.898408 0.0339,0.711947 0.254267,1.339137 0.220364,0.61024 0.728897,1.000115 0.508533,0.372924 1.356088,0.372924 z"
         id="path2423" />
      <path
         d="m 26.070723,57.941536 q -0.169511,0 -0.288168,-0.101707 -0.101707,-0.118657 -0.101707,-0.288168 V 49.51684 q 0,-0.169511 0.101707,-0.271218 0.118657,-0.118658 0.288168,-0.118658 h 0.813653 q 0.169511,0 0.271218,0.118658 0.101706,0.101707 0.101706,0.271218 v 8.034821 q 0,0.169511 -0.101706,0.288168 -0.101707,0.101707 -0.271218,0.101707 z M 25.935114,47.482708 q -0.169511,0 -0.288168,-0.101707 -0.101707,-0.118658 -0.101707,-0.288169 v -0.915359 q 0,-0.169511 0.101707,-0.271218 0.118657,-0.118657 0.288168,-0.118657 h 1.06792 q 0.169511,0 0.271217,0.118657 0.118658,0.101707 0.118658,0.271218 v 0.915359 q 0,0.169511 -0.118658,0.288169 -0.101706,0.101707 -0.271217,0.101707 z"
         id="path2425" />
      <path
         d="m 33.224065,57.941536 q -0.949261,0 -1.54255,-0.355973 -0.593288,-0.372924 -0.864506,-1.034017 -0.271217,-0.678044 -0.271217,-1.593404 v -4.47509 h -1.322186 q -0.169511,0 -0.288169,-0.101706 -0.101706,-0.118658 -0.101706,-0.288169 V 49.51684 q 0,-0.169511 0.101706,-0.271218 0.118658,-0.118658 0.288169,-0.118658 h 1.322186 v -2.830833 q 0,-0.169511 0.101706,-0.271218 0.118658,-0.118658 0.288169,-0.118658 h 0.796702 q 0.169511,0 0.271217,0.118658 0.118658,0.101707 0.118658,0.271218 v 2.830833 h 2.101936 q 0.169511,0 0.271218,0.118658 0.118658,0.101707 0.118658,0.271218 v 0.576337 q 0,0.169511 -0.118658,0.288169 -0.101707,0.101706 -0.271218,0.101706 h -2.101936 v 4.356433 q 0,0.796701 0.271217,1.254381 0.271218,0.45768 0.966213,0.45768 h 1.034017 q 0.169511,0 0.271218,0.118657 0.118658,0.101707 0.118658,0.271218 v 0.61024 q 0,0.169511 -0.118658,0.288168 -0.101707,0.101707 -0.271218,0.101707 z"
         id="path2427" />
      <path
         d="m 35.834516,57.941536 q -0.135609,0 -0.237316,-0.101707 -0.101706,-0.101706 -0.101706,-0.237315 0,-0.08476 0.01695,-0.186462 l 4.203873,-10.967361 q 0.0678,-0.169511 0.186462,-0.271218 0.118657,-0.101707 0.355973,-0.101707 h 1.152675 q 0.220364,0 0.339022,0.101707 0.135608,0.101707 0.203413,0.271218 l 4.186921,10.967361 q 0.0339,0.101706 0.0339,0.186462 0,0.135609 -0.101706,0.237315 -0.101707,0.101707 -0.237316,0.101707 h -0.864506 q -0.203413,0 -0.305119,-0.101707 -0.08476,-0.101706 -0.118658,-0.186462 L 43.61507,55.246311 h -5.55996 l -0.932311,2.407056 q -0.01695,0.08476 -0.118657,0.186462 -0.101707,0.101707 -0.30512,0.101707 z m 2.712176,-4.153019 h 4.576797 L 40.83509,47.770876 Z"
         id="path2429" />
      <path
         d="m 51.189001,61.670778 q -0.474631,-0.01695 -0.847555,-0.169511 -0.355973,-0.15256 -0.525484,-0.355973 -0.15256,-0.203413 0,-0.339022 l 0.254267,-0.237316 q 0.15256,-0.135608 0.271217,-0.0678 0.118658,0.08476 0.30512,0.203413 0.186462,0.118658 0.542435,0.118658 0.271218,0 0.474631,-0.169511 0.203413,-0.169511 0.203413,-0.45768 0,-0.271217 -0.203413,-0.440728 -0.203413,-0.15256 -0.474631,-0.15256 -0.254266,0 -0.440728,0.0678 -0.169511,0.0678 -0.30512,0.08476 -0.118658,0.0339 -0.254267,-0.101707 l -0.288168,-0.30512 q -0.08476,-0.101706 -0.05085,-0.237315 0.05085,-0.135609 0.118658,-0.271218 l 0.339022,-0.813653 q -1.38999,-0.237315 -2.186692,-1.220479 -0.77975,-1.000115 -0.830604,-2.593518 -0.01695,-0.254266 -0.01695,-0.678044 0,-0.423777 0.01695,-0.678044 0.0339,-1.220479 0.508533,-2.084985 0.474631,-0.881457 1.339137,-1.339137 0.881457,-0.474631 2.084985,-0.474631 0.983164,0 1.678159,0.271218 0.711946,0.271217 1.169626,0.694995 0.45768,0.423777 0.678044,0.915359 0.237315,0.491582 0.254267,0.932311 0.01695,0.169511 -0.101707,0.271217 -0.118658,0.101707 -0.288169,0.101707 h -0.813652 q -0.169511,0 -0.254267,-0.0678 -0.08476,-0.08476 -0.169511,-0.271218 -0.30512,-0.830604 -0.830604,-1.169626 -0.525484,-0.339022 -1.305234,-0.339022 -1.017066,0 -1.661208,0.627191 -0.627191,0.62719 -0.678044,2.017181 -0.01695,0.610239 0,1.186577 0.05085,1.406941 0.678044,2.034132 0.644142,0.610239 1.661208,0.610239 0.77975,0 1.305234,-0.339022 0.525484,-0.339022 0.830604,-1.169626 0.08476,-0.186462 0.169511,-0.254266 0.08476,-0.08476 0.254267,-0.08476 h 0.813652 q 0.169511,0 0.288169,0.101707 0.118658,0.101706 0.101707,0.271217 -0.01695,0.423778 -0.254267,0.91536 -0.220364,0.491582 -0.661093,0.915359 -0.440728,0.423778 -1.152675,0.711946 -0.694995,0.271218 -1.695109,0.271218 l -0.372925,0.779751 q 0.101707,-0.0678 0.271218,-0.101707 0.186462,-0.0339 0.355973,-0.0339 0.576337,0 0.93231,0.389875 0.372925,0.406826 0.372925,1.034017 0,0.61024 -0.423778,1.050968 -0.406826,0.45768 -1.186577,0.440729 z"
         id="path2431" />
      <path
         d="m 59.478058,58.111047 q -0.847555,0 -1.542551,-0.339022 -0.694995,-0.339022 -1.118772,-0.915359 -0.423778,-0.576338 -0.423778,-1.305235 0,-1.169626 0.949262,-1.864621 0.949262,-0.694995 2.47486,-0.915359 l 2.525714,-0.355973 v -0.491582 q 0,-0.813653 -0.47463,-1.271333 -0.45768,-0.457679 -1.508648,-0.457679 -0.7628,0 -1.237431,0.305119 -0.457679,0.30512 -0.644141,0.779751 -0.101707,0.254266 -0.355973,0.254266 h -0.7628 q -0.186462,0 -0.288169,-0.101706 -0.08476,-0.118658 -0.08476,-0.271218 0,-0.254266 0.186462,-0.62719 0.203413,-0.372925 0.61024,-0.728898 0.406826,-0.355973 1.034017,-0.593288 0.644141,-0.254267 1.559501,-0.254267 1.017066,0 1.712061,0.271218 0.694995,0.254266 1.08487,0.694995 0.406827,0.440729 0.576338,1.000115 0.186462,0.559386 0.186462,1.135723 v 5.492157 q 0,0.169511 -0.118658,0.288168 -0.101707,0.101707 -0.271218,0.101707 h -0.77975 q -0.186462,0 -0.288169,-0.101707 -0.101706,-0.118657 -0.101706,-0.288168 v -0.728898 q -0.220365,0.30512 -0.593289,0.61024 -0.372924,0.288169 -0.93231,0.491582 -0.559387,0.186462 -1.373039,0.186462 z m 0.355973,-1.271333 q 0.694995,0 1.271332,-0.288168 0.576337,-0.30512 0.898408,-0.932311 0.339022,-0.62719 0.339022,-1.576452 v -0.474631 l -1.966327,0.288169 q -1.203528,0.169511 -1.813768,0.576337 -0.610239,0.389876 -0.610239,1.000115 0,0.474631 0.271217,0.796702 0.288169,0.30512 0.711946,0.45768 0.440729,0.152559 0.898409,0.152559 z m 1.423892,-8.899327 q -0.423778,0 -0.678044,-0.135608 -0.254267,-0.15256 -0.474631,-0.288169 -0.203413,-0.15256 -0.474631,-0.15256 -0.186462,0 -0.288168,0.118658 -0.08476,0.118657 -0.169511,0.254266 -0.0678,0.118658 -0.254267,0.118658 h -0.542435 q -0.118658,0 -0.203413,-0.08476 -0.08476,-0.08476 -0.08476,-0.186462 0,-0.254266 0.08476,-0.508533 0.101706,-0.271217 0.288169,-0.491582 0.186462,-0.237315 0.440728,-0.372924 0.271218,-0.135609 0.593289,-0.135609 0.440728,0 0.694995,0.15256 0.254266,0.135609 0.47463,0.288169 0.220365,0.135609 0.45768,0.135609 0.220364,0 0.30512,-0.118658 0.08476,-0.135609 0.15256,-0.254266 0.08476,-0.135609 0.271217,-0.135609 h 0.542436 q 0.135608,0 0.203413,0.08476 0.08476,0.08476 0.08476,0.203413 0,0.237316 -0.101706,0.508533 -0.08476,0.271218 -0.271218,0.508533 -0.186462,0.220365 -0.45768,0.355974 -0.254266,0.135608 -0.593288,0.135608 z"
         id="path2433" />
      <path
         d="m 69.987708,58.111047 q -1.288284,0 -2.15279,-0.491582 -0.864506,-0.491582 -1.322186,-1.356088 -0.457679,-0.881457 -0.508533,-2.00023 -0.01695,-0.288168 -0.01695,-0.728897 0,-0.45768 0.01695,-0.728897 0.05085,-1.135724 0.508533,-2.00023 0.474631,-0.864506 1.339137,-1.356088 0.864506,-0.491582 2.135839,-0.491582 1.271332,0 2.135838,0.491582 0.864506,0.491582 1.322186,1.356088 0.474631,0.864506 0.525484,2.00023 0.01695,0.271217 0.01695,0.728897 0,0.440729 -0.01695,0.728897 -0.05085,1.118773 -0.508533,2.00023 -0.457679,0.864506 -1.322186,1.356088 -0.864506,0.491582 -2.152789,0.491582 z m 0,-1.305235 q 1.050968,0 1.678159,-0.661093 0.62719,-0.678044 0.678044,-1.966327 0.01695,-0.254267 0.01695,-0.644142 0,-0.389875 -0.01695,-0.644142 -0.05085,-1.288283 -0.678044,-1.949376 -0.627191,-0.678044 -1.678159,-0.678044 -1.050968,0 -1.69511,0.678044 -0.627191,0.661093 -0.661093,1.949376 -0.01695,0.254267 -0.01695,0.644142 0,0.389875 0.01695,0.644142 0.0339,1.288283 0.661093,1.966327 0.644142,0.661093 1.69511,0.661093 z"
         id="path2435" />
    </g>
    <g
       id="g84817"
       transform="matrix(0.96580919,0,0,0.96580919,-90.201653,-82.680921)">
      <rect
         style="fill:#f04e23;fill-opacity:1;stroke:none;stroke-width:1.175"
         id="rect84813"
         width="39.662796"
         height="39.662796"
         x="111.86725"
         y="85.607925"
         ry="2.6901774" />
      <path
         id="path84815"
         style="clip-rule:evenodd;fill:#ffffff;fill-rule:nonzero;stroke-width:0.00592801;image-rendering:optimizeQuality;shape-rendering:geometricPrecision;text-rendering:geometricPrecision"
         class="fil1"
         d="m 131.67642,95.576687 c -1.1441,0 -2.28203,0.765114 -2.28203,2.282688 0.004,2.549035 0.0118,10.208085 0.0178,12.520025 0,0.38533 -0.23732,0.74065 -0.593,0.88884 -4.52308,1.89106 1.06109,10.36812 2.057,11.82047 0.10086,0.13635 0.16023,0.30263 0.17208,0.47455 l 0.14628,1.99942 h 13.1223 l 0.2707,-2.07685 c 0.0178,-0.1482 0.0712,-0.29049 0.14824,-0.41498 2.92253,-4.51123 3.14801,-8.46519 2.65599,-11.40549 h -6.6e-4 c -0.53945,-3.17744 -2.8275,-3.60985 -3.81156,-3.64544 -0.27862,-0.0118 -0.53349,-0.15402 -0.68169,-0.39112 -0.74695,-1.17376 -1.75471,-1.48253 -2.61429,-1.48253 -0.39124,0 -0.75253,0.0653 -1.03709,0.13633 -0.083,0.0237 -0.17247,0.0358 -0.25547,0.0358 -0.30233,0 -0.59257,-0.13624 -0.77633,-0.39115 -0.73509,-1.01369 -1.68968,-1.29257 -2.51367,-1.29257 -0.21933,0 -0.42649,0.0239 -0.62213,0.0536 -0.0475,0.005 -0.10086,0.0118 -0.14826,0.0118 -0.5276,0 -0.97225,-0.42685 -0.97225,-0.97224 l -0.004,-5.874491 c 0,-1.517569 -1.13854,-2.276727 -2.27671,-2.276727 z" />
    </g>
  </g>
</svg>
